<svg xmlns="http://www.w3.org/2000/svg" xmlns:xlink="http://www.w3.org/1999/xlink" width="150" zoomAndPan="magnify" viewBox="0 0 112.5 112.499997" height="150" preserveAspectRatio="xMidYMid meet" version="1.0"><defs><filter x="0%" y="0%" width="100%" height="100%" id="a0c640ae49"><feColorMatrix values="0 0 0 0 1 0 0 0 0 1 0 0 0 0 1 0 0 0 1 0" color-interpolation-filters="sRGB"></feColorMatrix></filter><filter x="0%" y="0%" width="100%" height="100%" id="d235ce13e5"><feColorMatrix values="0 0 0 0 1 0 0 0 0 1 0 0 0 0 1 0.2126 0.7152 0.0722 0 0" color-interpolation-filters="sRGB"></feColorMatrix></filter><clipPath id="76124ae269"><path d="M 0 0 L 112.003906 0 L 112.003906 112.003906 L 0 112.003906 Z M 0 0 " clip-rule="nonzero"></path></clipPath><mask id="7d4d247e64"><g filter="url(#a0c640ae49)"><g filter="url(#d235ce13e5)" transform="matrix(0.0700014, 0, 0, 0.0700014, 0.0000015, 0.000000995575)"><image x="0" y="0" width="1600" height="1600" preserveAspectRatio="xMidYMid meet"></image></g></g></mask></defs><g clip-path="url(#76124ae269)"><path fill="#ffffff" d="M 0 0 L 112.003906 0 L 112.003906 112.003906 L 0 112.003906 Z M 0 0 " fill-opacity="1" fill-rule="nonzero"></path><path fill="#ffffff" d="M 0 0 L 112.003906 0 L 112.003906 112.003906 L 0 112.003906 Z M 0 0 " fill-opacity="1" fill-rule="nonzero"></path></g><g mask="url(#7d4d247e64)"><g transform="matrix(0.0700014, 0, 0, 0.0700014, 0.0000015, 0.000000995575)"><image x="0" y="0" width="1600" height="1600" preserveAspectRatio="xMidYMid meet"></image></g></g></svg>